<?xml version="1.0" encoding="utf-8"?>
<!-- Generator: Adobe Illustrator 26.0.2, SVG Export Plug-In . SVG Version: 6.00 Build 0)  -->
<svg version="1.1" id="Layer_1" xmlns="http://www.w3.org/2000/svg" xmlns:xlink="http://www.w3.org/1999/xlink" x="0px" y="0px"
	 viewBox="0 0 64 64" style="enable-background:new 0 0 64 64;" xml:space="preserve">
<style type="text/css">
	.st0{fill:#FFFFFF;stroke:#000000;stroke-miterlimit:10;}
	.st1{fill:none;stroke:#010101;stroke-miterlimit:10;}
</style>
<rect x="0.49" y="0.56" class="st0" width="63.02" height="63.02"/>
<path class="st0" d="M44.5,32.07"/>
<polygon class="st1" points="32.32,10.09 32.32,10.24 32.32,13.81 34.64,13.9 37.76,14.57 40.96,15.89 43.57,17.66 45.1,18.93 
	47.13,21.29 48.42,23.38 49.62,26.12 50.31,28.31 50.56,30.89 50.56,33.88 50.04,36.82 49.08,39.56 47.51,42.36 45.68,44.63 
	43.4,46.69 41.1,48.2 38.36,49.4 35.75,50.15 33.21,50.45 30.61,50.45 29.08,50.15 27.3,49.76 25.79,49.27 24.28,48.61 22.72,47.68 
	20.75,46.36 18.99,44.8 17.54,42.96 16.56,41.59 15.6,39.64 14.86,37.64 14.28,35.6 14.01,33.85 14.01,31.39 14.14,28.89 
	14.64,27.05 15.9,23.84 16.99,21.92 18.45,20.11 19.62,18.91 21.19,17.48 21.35,17.43 21.35,26.61 25.02,26.64 24.97,11.91 
	10.28,11.91 10.28,15.59 17.82,15.62 17.27,16.06 16.42,16.96 15.16,18.3 13.84,20.17 12.45,22.58 11.65,24.61 10.99,26.94 
	10.56,28.73 10.28,31.63 10.39,34.35 10.83,36.95 11.71,39.94 12.99,42.66 14.45,44.93 16.34,47.27 18.28,49.1 20.99,50.97 
	24.31,52.59 27.43,53.55 29.05,53.9 31.62,54.09 33.71,54.09 35.75,53.82 37.54,53.52 40.5,52.5 42.72,51.46 44.42,50.42 
	46.34,49.08 48.36,47.18 50.2,44.88 51.21,43.34 52.17,41.48 52.67,40.3 53.38,38.38 53.98,35.6 54.28,33.03 54.28,30.84 
	54.04,28.92 53.65,26.92 53.08,24.94 52.23,22.75 51.08,20.53 49.65,18.55 47.84,16.49 46.14,14.99 44.2,13.61 42.75,12.76 
	41.02,11.94 38.67,11.01 35.9,10.41 "/>
</svg>
